<?xml version="1.0" encoding="utf-8" ?><svg xmlns="http://www.w3.org/2000/svg" xmlns:xlink="http://www.w3.org/1999/xlink" width="1380" height="752" viewBox="0 0 1380 752"><path fill="white" d="M0 0L1380 0L1380 752L0 752L0 0Z"/><defs><linearGradient id="gradient_0" gradientUnits="userSpaceOnUse" x1="559.75201" y1="532.61499" x2="658.05963" y2="353.16782"><stop offset="0" stop-color="#0A1A3C"/><stop offset="1" stop-color="#115067"/></linearGradient></defs><path fill="url(#gradient_0)" d="M492.565 309.585C492.472 321.056 493.986 334.565 496.144 345.735C484.289 361.032 473.847 376.654 467.764 394.82C451.983 441.955 491.809 446.363 526.575 439.477C565.154 431.836 599.563 414.912 633.754 397.123L634.881 397.696C642.663 394.146 666.627 378.169 670.837 377.065C677.191 384.299 685.49 395.326 695.122 396.373L696.026 397.221C695.139 401.704 683.087 405.295 680.393 410.056C678.4 411.242 674.564 413.216 673.41 414.952L673.315 415.571C676.259 415.85 679.361 416.091 682.279 416.49C728.134 417.034 759.988 399.774 784.158 360.322C811.642 360.318 840.777 359.804 868.095 360.318C859.694 391.955 839.591 422.744 815.53 444.772C812.614 447.44 803.868 455.366 800.373 457.049C782.657 472.159 748.625 486.262 725.964 490.402C673.546 499.978 625.748 489.559 581.896 460.067C537.423 478.4 428.214 507.881 424.403 431.978C422.318 390.457 464.958 338.532 492.565 309.585Z"/><defs><linearGradient id="gradient_1" gradientUnits="userSpaceOnUse" x1="721.15472" y1="457.28259" x2="852.96069" y2="346.49213"><stop offset="0" stop-color="#0D3654"/><stop offset="1" stop-color="#1EA3A5"/></linearGradient></defs><path fill="url(#gradient_1)" d="M784.158 360.322C811.642 360.318 840.777 359.804 868.095 360.318C859.694 391.955 839.591 422.744 815.53 444.772C812.614 447.44 803.868 455.366 800.373 457.049L800.437 455.635L810.478 447.282C803.937 441.135 798.647 435.832 794.272 427.967C790.244 431.94 783.221 437.074 778.396 440.076L777.467 439.539C761.214 448.37 757.129 452.621 737.748 458.727C693.739 472.593 653.472 467.392 612.927 446.729C617.875 444.546 636.37 434.771 639.226 434.462C640.442 432.657 670.737 415.694 673.315 415.571C676.259 415.85 679.361 416.091 682.279 416.49C728.134 417.034 759.988 399.774 784.158 360.322Z"/><path fill="white" d="M799.377 387.712C808.189 387.65 817 387.723 825.81 387.932C816.905 402.873 805.803 415.879 792.959 427.581C788.414 431.722 781.627 435.312 777.467 439.539C761.214 448.37 757.129 452.621 737.748 458.727C693.739 472.593 653.472 467.392 612.927 446.729C617.875 444.546 636.37 434.771 639.226 434.462C640.442 432.657 670.737 415.694 673.315 415.571C676.259 415.85 679.361 416.091 682.279 416.49C685.055 418.889 689.012 417.279 690.172 418.545C691.943 420.479 693.526 425.521 695.616 427.625C697.697 429.935 711.073 439.71 711.866 441.043L711.236 441.189C710.393 441.961 710.473 441.598 710.252 442.455C710.922 442.395 711.591 442.322 712.259 442.234C747.817 437.55 777.975 415.594 799.377 387.712Z"/><path fill="#0D2947" d="M673.315 415.571C676.259 415.85 679.361 416.091 682.279 416.49C685.055 418.889 689.012 417.279 690.172 418.545C691.943 420.479 693.526 425.521 695.616 427.625C697.697 429.935 711.073 439.71 711.866 441.043L711.236 441.189C710.393 441.961 710.473 441.598 710.252 442.455C687.172 446.912 661.066 442.532 639.226 434.462C640.442 432.657 670.737 415.694 673.315 415.571Z"/><defs><linearGradient id="gradient_2" gradientUnits="userSpaceOnUse" x1="690.93396" y1="255.21002" x2="882.98712" y2="286.8707"><stop offset="0" stop-color="#176475"/><stop offset="1" stop-color="#20E4D4"/></linearGradient></defs><path fill="url(#gradient_2)" d="M858.226 127.9C861.553 121.594 867.661 112.116 869.602 106.218C870.598 103.193 865.848 90.3859 872.79 88.0635C885.692 83.7474 893.684 94.1938 886.827 105.196L899.38 127.74C907.383 125.454 915.409 123.248 923.457 121.123C926.282 114.572 931.103 108.672 939.02 112.524C941.564 113.782 943.515 115.984 944.459 118.66C946.978 125.932 941.719 130.579 935.492 132.744C933.118 140.885 930.78 149.298 928.175 157.348C935.137 161.449 942.856 165.792 949.66 170.037C960.776 164.096 970.608 172.258 966.749 182.506C965.863 184.929 964.018 186.88 961.649 187.899C957.662 189.628 953.309 188.529 949.689 186.469C946.211 188.598 930.132 197.335 928.655 200.106L928.805 202.662L928.273 203.169L929.706 207.986L929.236 208.57C927.708 208.114 926.161 207.666 924.64 207.193L923.661 207.765C922.887 204.835 923.419 204.787 921.474 203.484C918.808 203.544 915.512 206.491 912.798 207.779C909.583 205.691 906.597 205.052 903.196 207.141C899.665 204.686 895.453 200.041 892.383 196.855C889.678 198.271 881.316 216.961 878.158 221.846C842.142 284.714 782.548 338.788 724.488 380.969C714.224 388.427 691.33 404.441 680.393 410.056C683.087 405.295 695.139 401.704 696.026 397.221L695.122 396.373C685.49 395.326 677.191 384.299 670.837 377.065C666.627 378.169 642.663 394.146 634.881 397.696L633.754 397.123C635.89 395.045 652.471 386.041 655.894 383.976C667.138 377.077 678.205 369.894 689.085 362.434C749.406 320.883 827.008 251.641 855.108 181.866C855.407 180.38 855.597 176.831 855.727 175.147C856.56 170.341 857.539 168.324 860.088 164.197C861.728 161.948 862.675 161.182 864.742 159.349L855.223 149.787L854.725 148.934L857.454 142.897L856.875 142.726C856.048 143.293 854.468 143.613 853.416 143.902C851.857 142.073 852.333 142.423 852.158 139.54C852.356 138.869 854.427 134.772 854.858 133.896C852.249 133.202 850.433 132.628 847.896 131.705L848.686 131.195C847.079 129.691 841.798 129.893 839.952 128.334L840.062 126.483L841.119 125.555C843.393 124.962 843.809 124.988 846.038 125.528L846.592 125.666L847.561 125.015C851.126 125.939 854.681 126.901 858.226 127.9Z"/><path fill="#20C9BE" d="M858.226 127.9C861.553 121.594 867.661 112.116 869.602 106.218C870.598 103.193 865.848 90.3859 872.79 88.0635C885.692 83.7474 893.684 94.1938 886.827 105.196L899.38 127.74C907.383 125.454 915.409 123.248 923.457 121.123C926.282 114.572 931.103 108.672 939.02 112.524C941.564 113.782 943.515 115.984 944.459 118.66C946.978 125.932 941.719 130.579 935.492 132.744C933.118 140.885 930.78 149.298 928.175 157.348C935.137 161.449 942.856 165.792 949.66 170.037C960.776 164.096 970.608 172.258 966.749 182.506C965.863 184.929 964.018 186.88 961.649 187.899C957.662 189.628 953.309 188.529 949.689 186.469C946.211 188.598 930.132 197.335 928.655 200.106L928.805 202.662L928.273 203.169L929.706 207.986L929.236 208.57C927.708 208.114 926.161 207.666 924.64 207.193L923.661 207.765C922.887 204.835 923.419 204.787 921.474 203.484C918.808 203.544 915.512 206.491 912.798 207.779C909.583 205.691 906.597 205.052 903.196 207.141C899.665 204.686 895.453 200.041 892.383 196.855C889.678 198.271 881.316 216.961 878.158 221.846L877.465 221.763L877.059 220.69C879.094 219.196 885.652 204.829 887.793 201.576C890.724 197.509 894.21 191.974 897.076 188.069C906.022 175.879 896.919 173.143 896.289 163.55C897.817 158.529 904.469 158.7 904.759 153.196L902.679 151.026C899.008 154.377 895.316 160.792 890.109 159.964C888.361 158.78 887.405 158.223 885.354 157.55L884.789 156.171L881.448 155.051C879.699 152.549 881.498 149.412 879.807 146.117C878.381 145.845 877.734 145.544 876.469 146.216C876.404 149.15 876.389 150.592 875.735 153.455L875.594 154.056C874.238 156.177 868.23 157.32 864.742 159.349L855.223 149.787L854.725 148.934L857.454 142.897L856.875 142.726C856.048 143.293 854.468 143.613 853.416 143.902C851.857 142.073 852.333 142.423 852.158 139.54C852.356 138.869 854.427 134.772 854.858 133.896C852.249 133.202 850.433 132.628 847.896 131.705L848.686 131.195C847.079 129.691 841.798 129.893 839.952 128.334L840.062 126.483L841.119 125.555C843.393 124.962 843.809 124.988 846.038 125.528L846.592 125.666L847.561 125.015C851.126 125.939 854.681 126.901 858.226 127.9Z"/><path fill="white" d="M915.161 181.719C917.4 184.379 917.422 188.242 918.881 190.894L919.729 190.821C922.354 196.842 920.619 194.91 918.479 199.797C920.086 201.726 920.915 201.832 923.239 202.568C924.302 204.392 924.298 205.143 924.64 207.193L923.661 207.765C922.887 204.835 923.419 204.787 921.474 203.484C918.808 203.544 915.512 206.491 912.798 207.779C909.583 205.691 906.597 205.052 903.196 207.141C899.665 204.686 895.453 200.041 892.383 196.855C893.926 195.814 895.744 193.724 897.001 192.312C897.502 190.436 900.019 186.925 901.285 181.923C905.911 181.894 910.536 181.826 915.161 181.719Z"/><path fill="#1B9FA3" d="M918.881 190.894L919.729 190.821C922.354 196.842 920.619 194.91 918.479 199.797C920.086 201.726 920.915 201.832 923.239 202.568C924.302 204.392 924.298 205.143 924.64 207.193L923.661 207.765C922.887 204.835 923.419 204.787 921.474 203.484C918.808 203.544 915.512 206.491 912.798 207.779C909.583 205.691 906.597 205.052 903.196 207.141C899.665 204.686 895.453 200.041 892.383 196.855C893.926 195.814 895.744 193.724 897.001 192.312C900.412 195.739 903.921 199.194 907.282 202.658C909.519 202.209 918.247 198.604 919.323 196.16C920.278 193.99 919.54 193.232 918.881 190.894Z"/><path fill="#A5E2DF" d="M915.161 181.719C917.4 184.379 917.422 188.242 918.881 190.894C919.54 193.232 920.278 193.99 919.323 196.16C918.247 198.604 909.519 202.209 907.282 202.658C911.021 196.343 912.976 188.767 915.161 181.719Z"/><path fill="white" d="M881.986 140.152C885.471 141.634 900.105 147.594 902.151 149.621L892.027 159.504C889.498 158.097 887.607 156.884 884.789 156.171L881.448 155.051C882.368 151.325 882.035 144.261 881.986 140.152Z"/><path fill="white" d="M855.223 149.787C857.909 147.382 870.987 140.929 874.344 141.47L875.315 143.621C875.277 146.937 875.096 150.826 875.594 154.056C874.238 156.177 868.23 157.32 864.742 159.349L855.223 149.787Z"/><path fill="#A5E2DF" d="M861.243 135.906C865.22 136.937 872.167 138.286 875.066 140.914C875.179 141.828 875.336 142.708 875.315 143.621L874.344 141.47C870.987 140.929 857.909 147.382 855.223 149.787L854.725 148.934L857.454 142.897C859.052 140.688 860.063 138.361 861.243 135.906Z"/><path fill="#A5E2DF" d="M881.986 140.152C883.953 139.102 885.928 138.688 888.083 138.1C890.19 139.322 896.495 142.884 898.758 143.004L899.333 142.349C900.319 144.19 902.55 147.754 902.151 149.621C900.105 147.594 885.471 141.634 881.986 140.152Z"/><path fill="white" d="M888.083 138.1L896.017 135.743L899.333 142.349L898.758 143.004C896.495 142.884 890.19 139.322 888.083 138.1Z"/><path fill="white" d="M897.227 164.056C899.615 161.858 905.34 155.396 907.816 154.361C911.296 155.613 917.194 157.177 919.012 160.358C920.162 162.371 919.207 164.136 918.63 166.484L915.851 175.241C912.985 175.253 904.017 175.449 901.655 175.046C900.341 169.95 899.637 168.567 897.227 164.056Z"/><path fill="#A5E2DF" d="M907.816 154.361C911.296 155.613 917.194 157.177 919.012 160.358C920.162 162.371 919.207 164.136 918.63 166.484C916.803 165.976 915.517 165.561 913.744 164.891L912.551 165.64C910.942 161.111 910.063 158.644 907.816 154.361Z"/><path fill="#97E4DE" d="M912.551 165.64L913.744 164.891C915.517 165.561 916.803 165.976 918.63 166.484L915.851 175.241C912.985 175.253 904.017 175.449 901.655 175.046C904.372 174.644 912.078 174.675 915.203 174.62L912.551 165.64Z"/><path fill="white" d="M920.49 128.802L921.856 128.828C921.325 131.16 910.434 141.373 908.035 143.04L907.073 142.527L902.206 133.814L920.49 128.802Z"/><path fill="white" d="M874.941 111.661C875.649 114.496 875.243 129.23 875.187 132.973L867.376 130.785L865.664 130.019C865.27 126.566 872.783 115.184 874.941 111.661Z"/><path fill="white" d="M882.132 111.646C884.283 113.367 891.204 126.575 891.983 129.401L891.217 130.13C888.247 130.995 885.113 131.79 882.115 132.6C881.973 125.616 881.979 118.63 882.132 111.646Z"/><path fill="white" d="M926.4 164.284C929.945 166.212 932.732 167.793 936.147 169.983C938.348 171.098 942.335 172.742 943.585 174.597C942.341 175.465 941.145 175.158 939.539 175.059L923.103 174.947C924.093 171.457 925.316 167.769 926.4 164.284Z"/><defs><linearGradient id="gradient_3" gradientUnits="userSpaceOnUse" x1="940.53302" y1="171.45576" x2="937.43359" y2="174.12064"><stop offset="0" stop-color="#DFF4F6"/><stop offset="1" stop-color="white"/></linearGradient></defs><path fill="url(#gradient_3)" d="M936.147 169.983C938.348 171.098 942.335 172.742 943.585 174.597C942.341 175.465 941.145 175.158 939.539 175.059C936.145 172.518 936.808 173.697 936.147 169.983Z"/><path fill="white" d="M927.049 134.13L927.275 134.373C927.576 136.289 923.113 151.272 922.283 154.268L916.544 151.017L912.759 148.36C917.485 143.579 922.249 138.835 927.049 134.13Z"/><path fill="white" d="M943.748 181.605L943.785 181.924C942.398 183.642 928.077 191.981 926.04 191.829L923.248 181.864L943.748 181.605Z"/><path fill="#0D2947" d="M964.034 549.76C997.139 545.448 1027.47 568.803 1031.76 601.912C1036.04 635.022 1012.67 665.333 979.555 669.597C946.477 673.857 916.204 650.509 911.92 617.434C907.636 584.359 930.962 554.068 964.034 549.76Z"/><path fill="white" d="M964.925 575.904C983.548 572.164 1001.68 584.214 1005.45 602.831C1009.21 621.449 997.186 639.598 978.574 643.388C959.926 647.186 941.735 635.132 937.963 616.48C934.19 597.827 946.268 579.652 964.925 575.904Z"/><path fill="#0D2947" d="M398.334 549.908C431.452 545.78 461.622 569.344 465.64 602.476C469.658 635.608 445.995 665.7 412.85 669.609C379.86 673.499 349.939 649.97 345.94 616.992C341.941 584.015 365.37 554.016 398.334 549.908Z"/><path fill="white" d="M399.418 574.939C446.243 570.804 452.179 632.981 413.035 644.109C368.739 652.167 355.309 586.068 399.418 574.939Z"/><path fill="#1B9FA3" d="M646.748 179.601C660.606 172.537 694.219 171.333 709.661 174.128C737.91 176.037 772.121 196.703 790.62 217.938C794.679 222.647 798.41 227.631 801.785 232.852L766.548 232.998C752.934 219.827 742.688 212.909 724.675 206.299C711.857 200.804 691.993 199.471 678.299 201.062C673.046 201.672 667.76 202.771 662.714 203.196C662.096 203.661 651.097 207.51 649.649 208.063C595.656 228.669 566.642 291.746 587.781 345.974C595.52 365.827 605.111 377.709 621.369 392.298C615.725 396.184 601.174 402.777 594.662 405.816C578.246 391.075 564.34 366.328 558.197 345.258C548.362 311.057 552.514 274.349 569.74 243.209C585.732 214.251 614.757 188.839 646.748 179.601Z"/><defs><linearGradient id="gradient_4" gradientUnits="userSpaceOnUse" x1="549.63959" y1="349.26559" x2="632.4198" y2="282.84134"><stop offset="0" stop-color="#0B1F41"/><stop offset="1" stop-color="#166273"/></linearGradient></defs><path fill="url(#gradient_4)" d="M594.662 405.816C578.246 391.075 564.34 366.328 558.197 345.258C548.362 311.057 552.514 274.349 569.74 243.209C585.732 214.251 614.757 188.839 646.748 179.601C645.14 182.518 633.217 186.147 629.501 187.98C614.659 195.194 601.295 205.117 590.097 217.238C588.133 219.385 584.764 222.769 584.826 225.567C589.523 230.828 595.338 237.706 600.448 242.338C601.963 242.242 614.846 228.385 617.143 225.944C622.643 220.099 656.13 200.134 662.714 203.196C662.096 203.661 651.097 207.51 649.649 208.063C595.656 228.669 566.642 291.746 587.781 345.974C595.52 365.827 605.111 377.709 621.369 392.298C615.725 396.184 601.174 402.777 594.662 405.816Z"/><path fill="#20C9BE" d="M709.661 174.128C737.91 176.037 772.121 196.703 790.62 217.938C794.679 222.647 798.41 227.631 801.785 232.852L766.548 232.998C752.934 219.827 742.688 212.909 724.675 206.299C735.956 205.201 759.465 224.007 767.153 231.799C771.918 231.813 795.592 232.071 798.35 231.248L798.666 230.194C796.916 227.158 795.697 227.34 792.667 227.384C792.562 220.727 781.447 217.499 777.519 213.059C775.985 211.326 773.542 205.141 772.53 202.756C758.563 191.232 742.268 183.371 724.934 178.702C719.765 177.31 715.926 175.593 710.357 175.278L710.034 175.263L709.661 174.128Z"/><path fill="#0D2947" d="M594.263 552.456L622.962 552.325C633.082 568.853 643.364 585.281 653.808 601.606C663.687 585.163 674.118 568.76 684.164 552.373L713.101 552.427C713.637 590.239 713.2 629.183 713.193 667.063L687.275 667.092L687.267 619.239L687.243 592.747C680.449 603.425 673.575 614.052 666.622 624.626C663.027 630.116 657.742 638.675 653.604 643.525C649.561 638.875 644.174 630.28 640.643 624.949L619.803 593.278C620.156 617.713 619.928 642.604 619.933 667.073L594.275 667.11L594.263 552.456Z"/><path fill="#0D2947" d="M1055.41 552.405L1080.5 552.368L1138 622.449L1137.79 552.462L1164.45 552.413L1164.49 637.315C1164.49 642.388 1165.07 664.556 1163.53 667.055L1141.03 667.047C1121.13 644.429 1101 618.816 1081.51 595.502L1081.49 667.068L1055.36 667.06L1055.41 552.405Z"/><defs><linearGradient id="gradient_5" gradientUnits="userSpaceOnUse" x1="689.15625" y1="182.44217" x2="732.67041" y2="115.52139"><stop offset="0" stop-color="#1CAEAE"/><stop offset="1" stop-color="#1FD7C9"/></linearGradient></defs><path fill="url(#gradient_5)" d="M605.659 142.489C638.848 122.591 696.001 117.454 733.117 127.4C760.152 134.643 777.183 142.594 799.659 158.626C787.277 160.191 781.619 165.981 779.902 178.366C725.537 144.117 673.063 140.834 615.01 168.732C602.655 175.86 595.615 180.693 584.4 189.961L583.521 189.268C578.3 192.031 564.154 210.562 561.719 211.071C530.96 195.272 544.611 195.795 558.766 177.346L558.395 176.116C564.741 167.152 595.06 146.63 605.659 142.489Z"/><path fill="#19818C" d="M605.659 142.489C611.618 142.061 627.005 132.819 630.315 134.149C630.724 136.14 630.67 136.578 630.504 138.615C633.686 142.394 636.449 146.394 639.575 150.066C640.98 151.715 644.334 152.1 645.857 154.809C643.206 156.318 639.166 156.505 634.982 158.864C629.789 161.792 618.746 163.114 615.01 168.732C602.655 175.86 595.615 180.693 584.4 189.961L583.521 189.268C578.3 192.031 564.154 210.562 561.719 211.071C530.96 195.272 544.611 195.795 558.766 177.346L558.395 176.116C564.741 167.152 595.06 146.63 605.659 142.489Z"/><defs><linearGradient id="gradient_6" gradientUnits="userSpaceOnUse" x1="497.86227" y1="328.14999" x2="593.08826" y2="290.69543"><stop offset="0" stop-color="#0A1E3F"/><stop offset="1" stop-color="#165F72"/></linearGradient></defs><path fill="url(#gradient_6)" d="M558.395 176.116L558.766 177.346C544.611 195.795 530.96 195.272 561.719 211.071C564.154 210.562 578.3 192.031 583.521 189.268L584.4 189.961C578.342 196.526 572.807 201.159 566.757 208.461C547.006 232.5 534.747 261.808 531.499 292.751C526.818 341.2 542.879 378.616 572.954 415.191C563.711 418.902 554.313 422.216 544.787 425.123C484.211 353.979 489.542 239.81 558.395 176.116Z"/><path fill="#0D2947" d="M521.254 550.776C539.883 549.104 555.778 554.163 570.318 565.615L556.673 585.255C546.9 578.356 523.937 567.669 513.846 577.489C511.975 579.281 510.932 581.769 510.966 584.359C511.072 588.916 516.281 592.419 520.12 593.697C541.892 600.946 573.681 602.456 573.409 633.184C573.174 659.801 550.769 669.5 527.441 668.847C507.354 667.445 494.598 662.84 479.526 649.58L494.992 631.058C505.79 640.268 531.636 653.396 544.563 640.432C555.3 628.622 529.547 622.109 522.166 620.741C492.324 615.21 472.18 595.472 491.05 565.164C496.864 555.826 510.293 552.046 521.254 550.776Z"/><path fill="#0D2947" d="M280.019 550.767C301.002 548.644 318.099 554.257 332.958 569.15C327.269 575.295 321.743 581.644 316.021 587.82C307.351 579.841 298.266 574.291 286.008 574.432C277.587 574.486 269.547 577.948 263.721 584.028C233.711 615.013 273.629 666.621 310.549 635.736C312.042 634.487 315.069 631.276 316.76 631.233C322.41 636.616 328.032 642.029 333.626 647.47C323.167 659.321 312.08 666.297 296.169 668.314C279.71 670.401 262.069 667.228 248.745 656.972C236.49 647.615 228.557 633.685 226.761 618.37C222.263 582.989 244.809 554.9 280.019 550.767Z"/><path fill="#0D2947" d="M872.56 552.352L901.524 552.439C898.195 560.881 894.778 569.286 891.27 577.655C879.86 607.374 866.921 638.084 855.02 667.756L830.401 667.82C814.237 631.067 798.119 589.76 782.994 552.471L812.061 552.397C822.784 578.34 832.001 605.716 842.741 631.949C852.455 605.333 862.395 578.799 872.56 552.352Z"/><path fill="#0D2947" d="M739.615 552.416L766.141 552.398L766.129 667.049L739.714 667.101L739.615 552.416Z"/><path fill="#19818C" d="M821.918 132.782C821.135 132.53 820.358 132.261 819.587 131.976C816.595 130.856 814.491 129.166 813.18 126.166C812.079 123.665 812.061 120.819 813.13 118.303C814.308 115.5 816.564 113.289 819.391 112.169C826.946 109.199 831.387 114.661 833.777 120.979C838.561 122.26 842.874 123.408 847.561 125.015L846.592 125.666L846.038 125.528C843.809 124.988 843.393 124.962 841.119 125.555L840.062 126.483L839.952 128.334C841.798 129.893 847.079 129.691 848.686 131.195L847.896 131.705C850.433 132.628 852.249 133.202 854.858 133.896C854.427 134.772 852.356 138.869 852.158 139.54C852.333 142.423 851.857 142.073 853.416 143.902C854.468 143.613 856.048 143.293 856.875 142.726L857.454 142.897L854.725 148.934L855.223 149.787L864.742 159.349C862.675 161.182 861.728 161.948 860.088 164.197C857.539 168.324 856.56 170.341 855.727 175.147C855.597 176.831 855.407 180.38 855.108 181.866C845.627 181.85 821.461 181.225 813.213 182.19C821.377 186.503 829.172 191.062 837.154 195.696L833.658 201.424C824.973 196.535 816.323 191.584 807.709 186.571C806.755 187.098 805.768 187.56 804.752 187.955C798.903 190.215 792.426 188.081 790.431 181.803C789.485 178.783 789.802 175.509 791.311 172.727C794.976 166.035 801.871 166.967 807.632 170.089C811.905 167.553 816.237 165.119 820.626 162.789C821.744 161.722 827.543 158.549 829.217 157.589C826.469 149.653 824.196 140.911 821.918 132.782Z"/><defs><linearGradient id="gradient_7" gradientUnits="userSpaceOnUse" x1="804.71161" y1="194.51543" x2="825.92474" y2="170.86636"><stop offset="0" stop-color="#0B1D3D"/><stop offset="1" stop-color="#17576B"/></linearGradient></defs><path fill="url(#gradient_7)" d="M807.709 186.571C806.755 187.098 805.768 187.56 804.752 187.955C798.903 190.215 792.426 188.081 790.431 181.803C789.485 178.783 789.802 175.509 791.311 172.727C794.976 166.035 801.871 166.967 807.632 170.089C810.814 171.62 808.826 173.203 811.995 175.054C819 175.128 826.006 175.153 833.012 175.128C832.552 176.988 832.191 179.594 830.567 180.602C827.271 182.648 815.193 179.819 812.83 181.82L813.213 182.19C821.377 186.503 829.172 191.062 837.154 195.696L833.658 201.424C824.973 196.535 816.323 191.584 807.709 186.571Z"/><path fill="white" d="M849.516 153.731L860.088 164.197C857.539 168.324 856.56 170.341 855.727 175.147L841.422 175.141C840.129 170.31 838.614 165.573 837.125 160.8L849.516 153.731Z"/><path fill="white" d="M833.419 127.816C838.357 129.314 842.884 130.472 847.896 131.705C850.433 132.628 852.249 133.202 854.858 133.896C854.427 134.772 852.356 138.869 852.158 139.54C851.278 141.291 850.978 142.407 849.28 143.296C846.666 141.657 836.387 130.847 833.419 127.816Z"/><path fill="white" d="M822.707 168.812C825.776 167.494 828.075 166.128 830.943 164.471C831.982 167.352 833.723 171.505 833.877 174.434L833.012 175.128C826.006 175.153 819 175.128 811.995 175.054C815.6 173.032 819.171 170.951 822.707 168.812Z"/><path fill="#125265" d="M820.626 162.789L820.837 163.847C817.88 165.865 813.513 167.448 812.259 169.701C812.271 171.834 811.942 171.512 812.932 172.992C815.983 171.456 819.095 168.42 822.707 168.812C819.171 170.951 815.6 173.032 811.995 175.054C808.826 173.203 810.814 171.62 807.632 170.089C811.905 167.553 816.237 165.119 820.626 162.789Z"/><path fill="white" d="M829.42 133.78C832.281 135.382 843.137 146.091 843.69 149.006L842.099 150.195L835.179 154.257C833.135 147.466 831.215 140.64 829.42 133.78Z"/><path fill="#19818C" d="M924.64 207.193C926.161 207.666 927.708 208.114 929.236 208.57L929.706 207.986L928.273 203.169L928.805 202.662C933.327 209.042 931.45 222.655 938.748 225.451C948.252 227.976 945.873 241.053 938.356 244.767C930.981 248.409 925.57 242.633 923.824 235.906C920.761 235.029 911.052 232.693 908.566 231.426L899.192 229.139C897.857 231.641 895.484 236.427 894.001 238.622C894.298 235.109 896.667 231.718 896.075 229.231C893.017 229.293 893.238 229.649 890.357 231.733C891.332 229.732 892.35 228.689 891.881 226.993C890.311 226.595 890.074 226.502 888.626 225.769L888.224 223.716C889.738 219.67 892.603 220.117 895.691 221.227C897.08 219.79 902.396 209.357 903.196 207.141C906.597 205.052 909.583 205.691 912.798 207.779C915.512 206.491 918.808 203.544 921.474 203.484C923.419 204.787 922.887 204.835 923.661 207.765L924.64 207.193Z"/><path fill="#19818C" d="M924.64 207.193C926.161 207.666 927.708 208.114 929.236 208.57L929.706 207.986L928.273 203.169L928.805 202.662C933.327 209.042 931.45 222.655 938.748 225.451C937.219 225.334 927.356 224.061 926.624 223.682L926.334 222.435L927.499 222.218C927.577 219.822 924.537 210.65 923.661 207.765L924.64 207.193Z"/><defs><linearGradient id="gradient_8" gradientUnits="userSpaceOnUse" x1="927.00214" y1="218.29224" x2="917.69934" y2="205.89688"><stop offset="0" stop-color="#DAFEFF"/><stop offset="1" stop-color="#FBFFFF"/></linearGradient></defs><path fill="url(#gradient_8)" d="M912.798 207.779C915.512 206.491 918.808 203.544 921.474 203.484C923.419 204.787 922.887 204.835 923.661 207.765C924.537 210.65 927.577 219.822 927.499 222.218L926.334 222.435C925.027 220.051 915.333 210.443 912.798 207.779Z"/><path fill="#125265" d="M890.357 231.733C891.332 229.732 892.35 228.689 891.881 226.993C890.311 226.595 890.074 226.502 888.626 225.769L888.224 223.716C889.738 219.67 892.603 220.117 895.691 221.227C896.157 223.499 896.237 223.777 897.817 225.463C900.221 226.646 902.063 226.705 904.714 227.023C902.562 227.099 900.391 226.949 898.59 228.088C901.026 228.476 907.847 229.238 909.212 230.923L908.566 231.426L899.192 229.139C897.857 231.641 895.484 236.427 894.001 238.622C894.298 235.109 896.667 231.718 896.075 229.231C893.017 229.293 893.238 229.649 890.357 231.733Z"/><path fill="white" d="M908.042 213.24C910.57 214.792 921.431 225.214 922.273 228.045L920.303 227.872C914.434 226.133 908.516 224.562 902.556 223.162C904.297 219.883 906.235 216.5 908.042 213.24Z"/><path fill="#0D2947" d="M890.357 231.733C893.238 229.649 893.017 229.293 896.075 229.231C896.667 231.718 894.298 235.109 894.001 238.622C892.232 242.352 889.019 247.781 886.952 251.535C899.524 272.079 864.559 275.923 868.744 256.904C869.307 254.344 879.556 239.671 881.734 236.05L881.833 246.883C884.09 243 887.916 234.856 890.357 231.733Z"/></svg>